<?xml version="1.0" encoding="utf-8"?>
<!-- Generator: Adobe Illustrator 22.1.0, SVG Export Plug-In . SVG Version: 6.00 Build 0)  -->
<svg version="1.1" id="Layer_1" xmlns="http://www.w3.org/2000/svg" xmlns:xlink="http://www.w3.org/1999/xlink" x="0px" y="0px"
	 viewBox="0 0 378.4 378.4" style="enable-background:new 0 0 378.4 378.4;" xml:space="preserve">
<style type="text/css">
	.st0{fill-rule:evenodd;clip-rule:evenodd;fill:#FFFFFF;}
	.st1{fill-rule:evenodd;clip-rule:evenodd;fill:#3798BF;}
</style>
<g>
	
		<ellipse transform="matrix(0.7071 -0.7071 0.7071 0.7071 -78.364 189.1874)" class="st0" cx="189.2" cy="189.2" rx="189.2" ry="189.2"/>
	<g>
		<path class="st1" d="M189.2,264.5c-33,0-66,0-99,0c-8.8,0-14.8-6-14.8-14.9c0-29.9,0-59.7,0-89.6c0-7.6,0.5-7.9,7.1-4.4
			c31,16.5,61.9,33,92.8,49.7c9.3,5,18.2,5,27.5,0c30.8-16.6,61.7-33,92.5-49.5c1-0.5,2-1.1,3-1.6c3.3-1.5,4.5-0.8,4.5,2.7
			c0,31.6,0.1,63.3,0,94.9c0,6.6-6.9,12.6-13.9,12.6C255.7,264.5,222.5,264.5,189.2,264.5z"/>
		<path class="st1" d="M189.2,114.6c35.1,0,70.3,0,105.4,0c2.8,0,6.2-0.6,7.5,2.8c1.3,3.4-0.9,6-3,8.4c-1.4,1.6-3.3,2.7-5.1,3.8
			c-30.6,16.8-61.1,33.6-91.7,50.3c-8.7,4.8-17.5,4.8-26.2,0c-30.6-16.8-61.1-33.6-91.7-50.3c-3.4-1.9-6.3-4.2-7.9-7.8
			c-1.8-3.9-0.2-6.7,4.2-7.1c1.2-0.1,2.5-0.1,3.8-0.1C119.4,114.6,154.3,114.6,189.2,114.6z"/>
	</g>
</g>
</svg>
