<?xml version="1.0" encoding="utf-8"?>
<!-- Generator: Adobe Illustrator 22.1.0, SVG Export Plug-In . SVG Version: 6.00 Build 0)  -->
<svg version="1.1" id="Layer_1" xmlns="http://www.w3.org/2000/svg" xmlns:xlink="http://www.w3.org/1999/xlink" x="0px" y="0px"
	 viewBox="0 0 351.1 51.9" style="enable-background:new 0 0 351.1 51.9;" xml:space="preserve">
<style type="text/css">
	.st0{display:none;fill:#3798BF;}
	.st1{display:none;}
	.st2{display:inline;fill:#FFFFFF;}
	.st3{fill:#FFFFFF;}
</style>
<rect x="0.1" y="43.9" class="st0" width="351" height="8"/>
<g class="st1">
	<path class="st2" d="M51.3,41.4H37.8V25.8c0-3-0.6-4.7-2.7-4.7s-2.7,1.7-2.7,4.7v15.6H18.9V25.8c0-3-0.6-4.7-2.7-4.7
		c-2.1,0-2.7,1.7-2.7,4.7v15.6H0V10.8h13.5l-0.2,3.9c1.7-2.4,4.4-4.5,8.3-4.5s7.5,0.9,9.1,5.1c2.3-3.6,5-5.1,9.8-5.1
		c7.5,0,10.8,4.8,10.8,12.9V41.4z"/>
	<path class="st2" d="M86.8,41.4H74l-0.3-2.7c-1.5,1.5-3.9,3.4-7.8,3.4c-5.7,0-11.7-2.5-11.7-10c0-7.5,7.6-9.2,12-9.4l7.1-0.3v-0.3
		c0-1.7-1.4-2.9-5-2.9c-3.6,0-7.5,1.5-9.6,2.7l-3.3-8.5c3-1.4,8.4-3.2,14.7-3.2c6.3,0,9.9,1.2,12.6,3.6c2.7,2.4,4.1,5.7,4.1,10.8
		V41.4z M73.4,28.9l-2.7,0.2c-1.4,0.1-3,0.6-3,2.4c0,1.8,1.5,2.4,3,2.4s2.4-0.9,2.7-1.2V28.9z"/>
	<path class="st2" d="M112.9,20.7h-6.3v8.4c0,1.8,0.9,2.1,2.4,2.1s3-0.4,3-0.4l0.6,10.3c-1.2,0.3-4.5,1-8.4,1s-6.6-1-8.4-2.6
		c-1.8-1.7-2.7-4.4-2.7-8.9v-9.9h-4.2v-9.9h4.2V3.3h13.5v7.5h6.3V20.7z"/>
	<path class="st2" d="M136.6,20.7h-6.3v8.4c0,1.8,0.9,2.1,2.4,2.1s3-0.4,3-0.4l0.6,10.3c-1.2,0.3-4.5,1-8.4,1s-6.6-1-8.4-2.6
		c-1.8-1.7-2.7-4.4-2.7-8.9v-9.9h-4.2v-9.9h4.2V3.3h13.5v7.5h6.3V20.7z"/>
	<path class="st2" d="M172.9,39.5c-2.4,1.8-5.6,2.7-9.9,2.7s-9.6-0.8-14.2-4.3l4.6-7.9c4.2,2.8,9.1,3.2,10,3.2s1.7-0.1,1.7-1
		c0-1.1-3.8-1.9-5.1-2.3c-1.3-0.4-2.4-0.7-3.6-1.2c-1.2-0.4-5.7-2-5.7-8.4c0-6.4,5.6-10.3,12.9-10.3c7.3,0,11.3,2.5,13,3.5l-3.7,7.6
		c-3.1-1.9-6.5-2.9-8.8-2.9c-1.2,0-1.7,0.4-1.7,1c0,0.7,1.5,1.1,3.3,1.6c1.8,0.5,2.8,0.8,4.3,1.4c1.5,0.6,3.2,1.5,4.4,2.7
		c1.2,1.2,2.5,3.4,2.5,6.7S175.3,37.7,172.9,39.5z"/>
	<path class="st2" d="M213.7,41.4h-13.5v-15c0-3-0.3-5.3-3.1-5.3c-2.9,0-3.2,2.3-3.2,5.3v15h-13.5V0h13.5v9c0,1.8-0.1,5.7-0.1,5.7
		c1.5-2.4,4-4.5,8.5-4.5c9,0,11.4,5.7,11.4,13.2V41.4z"/>
	<path class="st2" d="M248.9,41.4h-12.8l-0.3-2.7c-1.5,1.5-3.9,3.4-7.8,3.4c-5.7,0-11.7-2.5-11.7-10c0-7.5,7.6-9.2,12-9.4l7.1-0.3
		v-0.3c0-1.7-1.4-2.9-5-2.9s-7.5,1.5-9.6,2.7l-3.3-8.5c3-1.4,8.4-3.2,14.7-3.2s9.9,1.2,12.6,3.6c2.7,2.4,4.1,5.7,4.1,10.8V41.4z
		 M235.6,28.9l-2.7,0.2c-1.4,0.1-3,0.6-3,2.4c0,1.8,1.5,2.4,3,2.4s2.4-0.9,2.7-1.2V28.9z"/>
	<path class="st2" d="M276.8,23.1h-0.6c-0.6-0.3-2.1-0.9-3.9-0.9s-3.4,0.8-4.2,2c-0.8,1.1-1.2,2.8-1.2,5.2v12h-13.5V10.8h13.5
		l-0.2,3.9c2-3.3,4.4-4.5,7.7-4.5c2.1,0,3,0.6,3,0.6L276.8,23.1z"/>
	<path class="st2" d="M302,42.1c-5.4,0-7.8-2.2-8.9-3.7c0.2,1.5,0.2,3,0.2,5.1v8.4h-13.5V10.8h12.7l-0.1,3c1.8-1.8,4.8-3.6,9.6-3.6
		c8.7,0,14.1,7,14.1,16C316.1,35.2,310.7,42.1,302,42.1z M297.7,20.7c-2.5,0-4.8,1.8-4.8,5.3c0,3.4,2.3,5.2,4.8,5.2
		c2.6,0,4.8-1.8,4.8-5.2C302.5,22.5,300.2,20.7,297.7,20.7z"/>
</g>
<g>
	<path class="st3" d="M350.8,29.7h-20.1c0.5,2.8,3.5,3.4,5.9,3.4c2.4,0,5.7-0.6,8.4-2.4l5.1,6.6c-1.5,1.2-5.7,5.2-15.5,5.2
		c-9.7,0-17.2-5.5-17.2-16s7.8-16,17.4-16s16.2,6,16.2,15.3C350.9,27.8,350.8,29.7,350.8,29.7z M338.5,22.7
		c-0.1-2.1-1.6-3.6-3.9-3.6c-2.2,0-3.7,1.5-3.9,3.6H338.5z"/>
</g>
</svg>
